<svg xmlns="http://www.w3.org/2000/svg" viewBox="0 0 128 128" role="img" aria-label="Arbin Dhital logo">
  <defs>
    <linearGradient id="g" x1="0" y1="0" x2="1" y2="1">
      <stop offset="0%" stop-color="#ffd46a"/>
      <stop offset="55%" stop-color="#87c8ff"/>
      <stop offset="100%" stop-color="#6f5cff"/>
    </linearGradient>
    <linearGradient id="g2" x1="0" y1="0" x2="0" y2="1">
      <stop offset="0%" stop-color="#0f1530"/>
      <stop offset="100%" stop-color="#0a0f23"/>
    </linearGradient>
  </defs>
  <rect width="128" height="128" rx="28" fill="url(#g2)"/>
  <path d="M37 94c13-26 17-49 16-65 18 7 32 29 31 47-2 17-14 30-33 30-7 0-11-3-14-12Z" fill="none" stroke="url(#g)" stroke-width="6" stroke-linecap="round" stroke-linejoin="round"/>
  <path d="M52 33c18 7 30 23 29 42-1 8-4 16-9 21" fill="none" stroke="#71d2ff" stroke-width="4" stroke-linecap="round"/>
  <circle cx="60" cy="47" r="11" fill="#10254d" stroke="#ffd46a" stroke-width="4"/>
  <circle cx="60" cy="47" r="5" fill="#7ad6ff"/>
  <path d="M28 98c10-7 22-12 36-12s26 5 36 12" fill="none" stroke="#ffd46a" stroke-width="4" stroke-linecap="round"/>
  <path d="M46 93c3 7 10 12 18 12s15-5 18-12" fill="none" stroke="#ffd46a" stroke-width="4" stroke-linecap="round"/>
</svg>
